# xmcd
#
# Track frame offsets:
#	150
#	23682
#	48217
#	78495
#	101045
#	124337
#	138437
#	154265
#	177767
#	201665
#	223772
#	262675
#
# Disc length: 3850 seconds
#
# Revision: 0
# Processed by: cddbd v1.5.2PL0 Copyright (c) Steve Scherf et al.
# Submitted via: EZCDAudioConverter 1.3.1.1
#
DISCID=a70f080c
DTITLE=Robben Ford - Tiger Walk
DYEAR=1997
DGENRE=Blues
TTITLE0=In The Beginning
TTITLE1=Ghosts
TTITLE2=Freedom
TTITLE3=Red Lady W Cello
TTITLE4=Oasis
TTITLE5=Just Like It Is
TTITLE6=I Can't Stand The Rain
TTITLE7=The Champ
TTITLE8=Tiger Walk
TTITLE9=Comin' Up
TTITLE10=Don't Let The Sun Catch You Crying (Hidden Track)
TTITLE11=Chevrolet (Hidden Track)
EXTD=
EXTT0=
EXTT1=
EXTT2=
EXTT3=
EXTT4=
EXTT5=
EXTT6=
EXTT7=
EXTT8=
EXTT9=
EXTT10=
EXTT11=
PLAYORDER=
